<svg xmlns="http://www.w3.org/2000/svg" viewBox="0 0 100 100">
  <title>spooky tree</title>
  <path fill="#000000" fill-rule="evenodd" d="M46.51 6L43.41 9.3L42.25 9.68L40.11 9.49L38.37 7.74L37.98 7.74L35.07 10.65L33.33 10.65L31.59 9.3L30.04 11.04L28.68 11.43L27.52 11.04L25.77 9.3L23.83 11.23L23.83 12.01L23.06 12.98L21.89 13.37L21.12 13.17L18.41 15.89L16.66 16.08L15.11 15.69L13.17 17.63L14.92 19.37L15.3 20.54L14.72 23.44L12.78 25.19L14.33 26.93L14.33 28.68L11.81 31.2L12.59 32.94L12.2 34.3L10.65 35.66L8.52 35.66L6.58 37.59L7.36 38.95L10.07 41.67L10.46 43.22L10.07 44.38L7.74 46.51L8.71 47.87L8.71 49.61L6.19 52.13L6.19 52.52L8.13 54.46L9.49 53.88L10.85 54.26L12.59 56.2L12.78 57.56L12.4 58.53L13.17 59.11L13.56 60.47L13.17 61.63L11.43 63.37L13.56 65.51L14.33 65.51L15.3 66.28L15.69 67.83L17.63 69.77L20.54 67.06L21.51 64.93L22.28 64.15L23.44 63.76L24.8 64.15L25.77 65.89L25.38 68.8L26.35 69.58L27.13 71.52L26.55 73.45L28.48 75.39L31 72.87L32.17 72.48L33.33 72.68L36.24 69.77L36.24 69.38L37.79 68.22L37.98 66.67L37.59 66.28L37.4 64.93L38.37 63.18L37.79 61.24L38.18 60.08L39.15 59.3L40.11 59.11L41.28 59.5L43.6 62.02L44.77 65.51L44.96 68.03L44.77 69.58L43.8 71.9L43.8 73.45L42.44 75.97L41.08 77.14L40.7 79.46L39.92 80.43L35.85 81.21L32.56 84.5L31 85.08L29.65 84.7L29.07 85.28L27.52 85.47L26.16 87.02L24.41 87.8L23.44 88.77L20.73 88.96L18.79 88.38L16.66 90.51L16.47 91.48L19.18 94L20.93 93.42L24.03 93.42L25.19 94L26.74 93.42L28.1 94L31.59 94L32.36 93.61L33.72 94L40.89 94L41.67 93.61L43.8 94L43.99 93.61L45.15 93.22L46.12 93.42L46.7 94L47.67 94L48.84 93.42L51.55 93.42L52.71 94L55.04 94L55.43 93.42L56.59 93.03L57.95 93.42L58.33 94L63.57 94L64.73 93.42L66.09 94L75 94L76.17 93.42L79.07 93.42L80.82 94L83.53 91.48L83.34 90.51L81.21 88.38L79.27 88.96L76.75 88.96L73.65 87.22L72.48 85.86L68.61 85.86L67.64 85.28L65.31 82.56L63.96 82.56L63.18 82.18L61.82 82.37L60.66 81.98L59.3 80.43L58.72 78.11L59.11 76.94L59.69 76.56L59.69 75.2L61.05 73.45L60.66 71.9L61.05 70.74L62.02 69.96L62.02 68.03L61.63 67.06L62.6 65.31L63.96 64.93L65.12 65.31L65.31 65.7L66.28 65.31L67.44 65.51L71.13 69.19L73.26 67.06L74.81 66.67L75.39 65.89L76.56 65.51L77.91 65.89L80.43 68.41L82.37 66.48L82.37 65.7L83.15 64.73L87.8 63.57L90.32 61.24L88.57 59.5L88.19 57.95L88.57 56.78L93.61 52.13L91.29 49.81L90.9 48.45L91.87 46.12L93.81 44.19L91.29 41.86L90.9 40.7L91.09 39.73L90.7 39.53L90.32 38.37L90.7 36.82L90.32 36.63L89.93 35.46L90.12 34.3L92.45 31.78L89.54 28.87L89.35 27.9L89.74 26.74L89.15 26.35L88.77 24.8L89.93 22.48L87.99 20.54L85.86 21.7L84.5 21.51L83.53 20.93L82.56 19.96L82.37 18.79L80.43 17.05L80.04 15.5L80.63 13.17L78.69 11.23L76.75 12.2L75.59 12.01L74.62 11.23L72.48 13.56L71.32 13.75L70.16 13.17L69 13.56L67.25 12.59L66.86 11.43L67.06 10.46L65.12 8.52L63.96 9.49L62.02 9.49L59.3 6.78L56.2 10.07L55.04 10.46L53.68 10.07L52.71 11.04L50.58 11.23L48.84 10.26L48.45 7.94Z"/>
</svg>
